<svg width="260" height="147" viewBox="0 0 260 147" fill="none" xmlns="http://www.w3.org/2000/svg">
<path opacity="0.2" d="M137.368 51.0097L136.18 56.4658L134.992 61.9219L129.436 62.478L123.88 63.0344L121.634 57.922L119.388 52.8097L123.556 49.094L127.724 45.378L132.546 48.194L137.368 51.0097Z" fill="#34D1BF"/>
<path opacity="0.1" d="M249.22 117.284L245.353 113.256L241.486 109.227L244.122 104.305L246.758 99.3826L252.255 100.369L257.751 101.355L258.511 106.887L259.272 112.419L254.246 114.851L249.22 117.284Z" fill="#34D1BF"/>
<path opacity="0.5" d="M185.067 146.412L183.235 144.504L181.403 142.596L182.652 140.264L183.901 137.933L186.504 138.4L189.108 138.867L189.468 141.487L189.828 144.108L187.448 145.26L185.067 146.412Z" fill="#B5E0FA"/>
<path opacity="0.4" d="M25.6715 20.3469L22.7581 14.9446L19.8443 9.54256L24.0818 5.10229L28.319 0.661771L33.8515 3.31977L39.384 5.97745L38.5657 12.0605L37.7478 18.1435L31.7096 19.245L25.6715 20.3469Z" fill="#B5E0FA"/>
<path opacity="0.3" d="M13.4328 71.7264L12.4617 75.529L11.4909 79.3317L7.43338 79.8246L3.37588 80.3177L1.83927 76.8197L0.302436 73.3219L3.41027 70.6671L6.51795 68.0121L9.97531 69.8694L13.4328 71.7264Z" fill="#34D1BF"/>
<path opacity="0.5" d="M191.52 36.8298L189.688 34.9216L187.857 33.0135L189.105 30.6818L190.354 28.3501L192.958 28.8173L195.561 29.2843L195.921 31.9047L196.282 34.5251L193.901 35.6774L191.52 36.8298Z" fill="#34D1BF"/>
</svg>
